<svg width="18" height="18" viewBox="0 0 18 18" fill="none" xmlns="http://www.w3.org/2000/svg">
<path d="M17.1633 15.8367L13.4531 12.125C14.5656 10.6754 15.0849 8.85688 14.9059 7.03841C14.7268 5.21993 13.8628 3.53765 12.489 2.33282C11.1152 1.12799 9.33451 0.490837 7.50822 0.550608C5.68193 0.610378 3.94675 1.3626 2.65467 2.65467C1.3626 3.94675 0.610378 5.68193 0.550608 7.50822C0.490837 9.33451 1.12799 11.1152 2.33282 12.489C3.53765 13.8628 5.21993 14.7268 7.03841 14.9059C8.85688 15.0849 10.6754 14.5656 12.125 13.4531L15.8383 17.1672C15.9255 17.2544 16.029 17.3236 16.143 17.3708C16.2569 17.418 16.379 17.4423 16.5024 17.4423C16.6257 17.4423 16.7478 17.418 16.8617 17.3708C16.9757 17.3236 17.0792 17.2544 17.1664 17.1672C17.2536 17.08 17.3228 16.9765 17.37 16.8625C17.4172 16.7486 17.4415 16.6265 17.4415 16.5031C17.4415 16.3798 17.4172 16.2577 17.37 16.1438C17.3228 16.0298 17.2536 15.9263 17.1664 15.8391L17.1633 15.8367ZM2.43752 7.75002C2.43752 6.6993 2.74909 5.67218 3.33283 4.79855C3.91658 3.92491 4.74628 3.244 5.71701 2.84191C6.68774 2.43981 7.75591 2.33461 8.78643 2.53959C9.81696 2.74458 10.7636 3.25054 11.5065 3.99351C12.2495 4.73648 12.7555 5.68307 12.9604 6.7136C13.1654 7.74412 13.0602 8.81229 12.6581 9.78302C12.256 10.7538 11.5751 11.5835 10.7015 12.1672C9.82785 12.7509 8.80073 13.0625 7.75002 13.0625C6.3415 13.0611 4.99108 12.5009 3.99511 11.5049C2.99914 10.5089 2.43896 9.15853 2.43752 7.75002Z" fill="#F1F5F9"/>
</svg>
